<?xml version="1.0" standalone="no"?>
<!DOCTYPE svg PUBLIC "-//W3C//DTD SVG 20010904//EN"
 "http://www.w3.org/TR/2001/REC-SVG-20010904/DTD/svg10.dtd">
<svg version="1.0" xmlns="http://www.w3.org/2000/svg"
 width="500.000000pt" height="500.000000pt" viewBox="0 0 500.000000 500.000000"
 preserveAspectRatio="xMidYMid meet">
<metadata>
Created by potrace 1.14, written by Peter Selinger 2001-2017
</metadata>
<g transform="translate(0.000000,500.000000) scale(0.100000,-0.100000)"
fill="#000000" stroke="none">
<path d="M0 2500 l0 -2500 2500 0 2500 0 0 2500 0 2500 -2500 0 -2500 0 0
-2500z m1331 1827 c46 -19 96 -78 106 -124 4 -21 8 -216 8 -433 0 -358 -2
-399 -18 -442 -22 -56 -62 -93 -117 -108 -26 -7 -186 -10 -457 -8 l-418 3 -33
23 c-17 13 -44 40 -60 59 l-27 36 -3 435 -3 434 26 43 c45 78 76 89 260 96
273 11 696 3 736 -14z m1128 -237 c82 -60 81 -52 81 -423 0 -351 -1 -357 -52
-403 -53 -48 -55 -49 -408 -54 l-335 -5 -3 -177 -2 -178 -60 0 -60 0 0 635 0
635 398 0 399 0 42 -30z m1043 1 c19 -13 46 -40 59 -59 23 -34 24 -43 27 -234
l3 -198 -400 0 -401 0 0 -114 c0 -107 1 -116 22 -130 19 -14 74 -16 400 -16
l378 0 0 -65 0 -65 -385 0 c-325 0 -391 2 -423 15 -47 20 -79 50 -103 98 -19
35 -20 57 -17 356 l3 318 27 40 c15 23 45 49 70 62 42 21 52 21 374 19 l331
-3 35 -24z m1076 15 c34 -18 75 -62 96 -103 14 -28 16 -82 16 -413 l0 -380
-64 0 -64 0 -4 373 c-2 299 -6 377 -17 390 -12 15 -47 17 -314 17 -266 0 -303
-2 -319 -17 -16 -15 -18 -35 -18 -217 0 -111 -3 -279 -7 -373 l-6 -173 -59 0
-58 0 0 455 0 455 395 0 c321 0 401 -3 423 -14z m-3428 -2446 l0 -1010 -115 0
-115 0 -2 876 -3 876 -153 -181 -153 -181 -144 0 c-80 0 -145 2 -145 5 0 3
117 145 260 315 l261 310 154 0 155 0 0 -1010z m1090 0 l0 -1011 -112 3 -113
3 -5 872 -5 871 -150 -179 -150 -179 -148 0 -148 0 18 23 c10 13 128 155 262
315 l245 292 153 0 153 0 0 -1010z m2252 977 c73 -36 150 -119 175 -189 16
-47 18 -88 18 -363 -1 -298 -1 -312 -23 -358 -30 -67 -112 -150 -175 -178
l-52 -24 -742 -5 -743 -5 -32 -33 -33 -32 0 -251 0 -251 37 -34 38 -34 865 0
866 0 -3 -112 -3 -113 -1015 0 -1015 0 -3 289 c-3 356 8 557 33 606 43 86 120
153 207 182 22 8 266 13 770 17 l738 6 27 28 28 27 0 278 c0 251 -2 280 -18
304 -10 14 -26 30 -35 34 -9 4 -337 9 -727 12 l-711 4 -32 -27 c-33 -27 -52
-76 -52 -132 l0 -33 -110 0 c-86 0 -112 3 -116 14 -3 8 -1 49 5 91 22 156 110
266 241 302 34 9 222 11 790 10 l745 -2 57 -28z"/>
<path d="M525 4213 c-41 -3 -64 -9 -72 -20 -10 -13 -13 -113 -13 -419 0 -353
2 -405 16 -418 13 -14 66 -16 420 -16 391 0 405 1 424 20 19 19 20 33 20 414
0 373 -1 395 -19 417 l-19 24 -349 1 c-191 0 -375 -1 -408 -3z"/>
<path d="M1766 3974 c-14 -13 -16 -55 -16 -309 0 -292 0 -294 22 -309 32 -23
593 -24 624 -2 18 14 19 29 19 309 0 234 -3 297 -14 310 -12 15 -47 17 -317
17 -262 0 -305 -2 -318 -16z"/>
<path d="M2807 3972 c-14 -15 -17 -40 -17 -130 l0 -112 335 0 335 0 0 110 c0
162 27 150 -338 150 -277 0 -300 -1 -315 -18z"/>
</g>
</svg>
