<?xml version="1.0" encoding="UTF-8" standalone="no"?>
<svg
   id="svg"
   version="1.1"
   width="400"
   height="400"
   viewBox="0 0 400 400.00001"
   sodipodi:docname="logo_transparent.svg"
   inkscape:version="1.1.1 (3bf5ae0d25, 2021-09-20)"
   xmlns:inkscape="http://www.inkscape.org/namespaces/inkscape"
   xmlns:sodipodi="http://sodipodi.sourceforge.net/DTD/sodipodi-0.dtd"
   xmlns="http://www.w3.org/2000/svg"
   xmlns:svg="http://www.w3.org/2000/svg">
  <defs
     id="defs8" />
  <sodipodi:namedview
     id="namedview6"
     pagecolor="#ffffff"
     bordercolor="#111111"
     borderopacity="1"
     inkscape:pageshadow="0"
     inkscape:pageopacity="0"
     inkscape:pagecheckerboard="1"
     showgrid="false"
     fit-margin-top="0"
     fit-margin-left="0"
     fit-margin-right="0"
     fit-margin-bottom="0"
     width="400px"
     inkscape:zoom="1.6344585"
     inkscape:cx="169.16918"
     inkscape:cy="160.60365"
     inkscape:window-width="1920"
     inkscape:window-height="1017"
     inkscape:window-x="1042"
     inkscape:window-y="372"
     inkscape:window-maximized="1"
     inkscape:current-layer="svgg" />
  <g
     id="svgg"
     transform="translate(-13.501,-16.927422)">
    <path
       id="path0"
       d="m 50.564052,69.756887 c -3.781065,0.700693 -5.676399,1.876178 -9.297605,5.768278 -0.302489,0.324493 -1.048176,1.642606 -1.656973,2.929118 L 38.501,80.792799 v 33.946261 33.94719 l 0.805035,1.89539 c 1.610071,3.79638 4.679919,6.85189 8.672537,8.63229 l 1.896277,0.84531 32.051069,0.0985 c 21.040952,0.0653 32.849352,-0.0254 34.373282,-0.26039 6.68533,-1.03572 11.36048,-5.80079 12.52248,-12.76174 0.73053,-4.37453 0.71996,-60.906738 -0.0132,-65.064945 -1.17751,-6.692002 -5.97696,-11.444651 -12.59243,-12.470803 -3.54466,-0.549455 -62.601229,-0.40874 -65.652893,0.156985 m 65.658573,10.457768 c 0.74959,0.392479 1.49523,1.202293 1.98341,2.154732 l 0.78206,1.524867 -0.0934,31.361766 -0.0935,31.36275 -0.8031,1.12466 c -1.62359,2.27635 0.41545,2.14901 -34.350345,2.14901 -34.764814,0 -32.726868,0.12734 -34.350336,-2.14901 l -0.803163,-1.12466 -0.105304,-30.15568 c -0.119351,-34.005605 -0.150943,-33.298213 1.533783,-35.162894 1.587085,-1.75556 -1.305665,-1.613899 33.903308,-1.666552 29.574627,-0.04497 31.257627,-0.01436 32.395617,0.58104 m 26.53163,57.951666 v 51.01465 h 5.17011 5.16908 V 174.7221 160.26404 l 26.27885,-0.11481 26.27897,-0.11399 1.88765,-0.79157 c 3.80891,-1.59773 6.79255,-4.46551 8.55184,-8.21979 l 0.9334,-1.99288 V 123.5274 98.024867 l -1.14098,-2.202586 c -1.45693,-2.813294 -4.52679,-5.883135 -7.3401,-7.341005 l -2.20256,-1.140058 -31.79262,-0.09475 -31.79364,-0.09572 V 138.16633 M 238.2172,87.400596 c -1.95656,0.31396 -7.91327,3.711178 -7.93169,4.523865 -0.004,0.133057 -0.45371,0.749511 -1.0013,1.369796 -0.54746,0.621253 -1.43679,2.171955 -1.97576,3.446994 l -0.9809,2.317449 v 24.64104 24.64202 l 1.25582,2.63521 c 2.3481,4.92209 6.51567,8.14029 11.54052,8.90811 1.55253,0.23729 12.57409,0.32919 32.00679,0.26795 l 29.63891,-0.0936 v -4.99683 -4.99773 l -30.3281,-0.17227 c -22.16571,-0.12534 -30.51358,-0.28048 -31.01824,-0.57338 -0.37899,-0.22016 -1.15439,-0.88923 -1.72287,-1.48657 l -1.03384,-1.08543 v -8.8525 -8.8525 l 32.05104,-0.17226 32.0521,-0.17232 V 114.0499 99.403358 l -1.03204,-2.57495 c -1.61962,-4.03952 -5.35179,-7.609984 -9.4172,-9.0085 -1.77281,-0.60976 -48.56912,-0.986907 -52.10323,-0.419264 m 75.82074,36.300086 v 36.54897 l 5.08373,-0.0946 5.0828,-0.0961 0.17231,-29.63883 c 0.097,-16.56959 0.30925,-29.86652 0.4825,-30.1556 0.63087,-1.053914 1.78138,-2.149946 2.57887,-2.45817 1.58414,-0.610721 46.81929,-0.375241 48.14013,0.251752 2.55106,1.20994 2.37021,-1.056785 2.56257,32.189758 l 0.17219,29.81109 5.09363,0.0961 5.09432,0.0956 -0.0968,-30.94059 -0.0969,-30.940476 -0.84047,-1.723025 c -1.92989,-3.960062 -4.60156,-6.687213 -8.2113,-8.378638 l -1.97661,-0.926597 -31.62138,-0.09574 -31.62008,-0.09474 V 123.7007 M 204.72272,98.197171 c 2.39302,1.555507 2.29538,0.559018 2.4084,24.641059 0.10828,23.26451 0.0712,23.85509 -1.60236,25.45182 -1.67898,1.60137 -1.69631,1.60236 -25.39645,1.60236 -24.94168,0 -24.50504,0.0367 -26.09504,-2.19299 l -0.77163,-1.08068 v -22.91901 c 0,-25.342692 -0.13018,-23.826447 2.17878,-25.392479 1.71718,-1.16686 47.49692,-1.268331 49.2783,-0.11008 m 83.42291,0.06031 c 2.02079,1.431049 2.11464,1.936469 2.11464,11.495389 v 8.7817 l -26.796,-0.0886 -26.79594,-0.0882 v -8.7884 c 0,-12.207513 -0.32993,-11.801649 9.82225,-12.062015 14.23803,-0.365664 40.75421,0.111996 41.65505,0.749507 M 249.59211,203.54999 c -14.2609,1.51526 -23.74513,13.34755 -23.77404,29.65881 l -0.006,3.53218 h 9.08231 9.08214 l 0.19051,-4.14002 c 0.25181,-5.46097 1.28635,-7.55735 4.73555,-9.59243 l 1.5505,-0.91422 h 56.69315 c 63.86869,0 57.82745,-0.2632 60.57771,2.63816 2.53278,2.67255 2.45049,1.86188 2.47248,24.61241 0.0233,22.90167 0.0609,22.50825 -2.47248,25.041 -2.91772,2.91769 2.80551,2.66015 -59.54284,2.68224 -63.01188,0.0236 -61.63718,-0.0376 -67.30984,2.95597 -0.98501,0.51877 -2.10789,1.11226 -2.49553,1.31809 -2.89364,1.53535 -7.21572,6.21148 -9.26609,10.02411 -3.23716,6.01815 -3.2957,6.78005 -3.29671,42.99312 l -8.6e-4,30.24265 h 81.33416 81.33532 v -9.13292 -9.13293 l -68.66903,-0.004 -68.66913,-0.003 -1.72597,-0.80408 c -0.94945,-0.4423 -2.24867,-1.39862 -2.88703,-2.12515 -2.37391,-2.705 -2.28019,-1.77655 -2.28019,-22.56765 0,-21.09354 -0.12916,-19.99078 2.64111,-22.64038 2.85637,-2.73287 -2.66884,-2.5003 59.91039,-2.52132 53.08539,-0.0179 55.83447,-0.0494 59.44239,-0.67393 9.6939,-1.67807 17.57279,-8.51739 20.98815,-18.21899 l 1.05202,-2.98853 0.11498,-23.26261 c 0.12433,-25.40484 0.13295,-25.26894 -1.89825,-30.32887 -3.54748,-8.83524 -12.2191,-15.48221 -21.60851,-16.56209 -2.58661,-0.2976 -112.53816,-0.37996 -115.30083,-0.0863 m -173.14347,4.90105 c -2.194954,2.63708 -4.186959,5.0024 -4.428187,5.25605 -0.240252,0.25279 -3.150251,3.70933 -6.466092,7.67988 -11.590201,13.87696 -15.5742,18.63446 -16.319897,19.49012 -0.413527,0.47397 -2.295441,2.72241 -4.182154,4.99677 -1.88765,2.27441 -4.094081,4.88957 -4.904853,5.8104 -0.810785,0.92082 -1.474148,1.8121 -1.474148,1.9814 0,0.17424 5.08387,0.30734 11.720368,0.30734 h 11.720459 l 0.65764,-0.77537 c 1.145798,-1.34968 8.293462,-9.82693 14.347966,-17.01569 3.211528,-3.81455 6.692987,-7.97476 7.735399,-9.24492 l 1.895346,-2.30987 0.0871,69.98699 0.08716,69.98791 h 9.304327 9.304366 v -80.47316 -80.4724 H 92.985794 80.438373 l -3.989756,4.79479 m 86.409603,1.32184 c -2.80092,3.36466 -6.8577,8.21118 -9.0162,10.76979 -2.15772,2.55969 -4.22531,5.01203 -4.59384,5.45144 -0.36857,0.4394 -2.25145,2.68114 -4.18509,4.98141 -5.90999,7.03375 -12.7454,15.19509 -14.19871,16.9526 -0.75798,0.91704 -1.53518,1.83779 -1.72676,2.04662 -1.31413,1.43295 -2.92521,3.47945 -2.92521,3.71588 0,0.15519 5.26379,0.2824 11.69736,0.2824 h 11.69746 l 1.5353,-1.80913 c 4.62815,-5.45526 13.99005,-16.54191 15.35099,-18.17979 0.8674,-1.04239 1.66294,-1.97276 1.76927,-2.06765 0.10609,-0.0952 1.50476,-1.78802 3.10895,-3.76279 l 2.91761,-3.59059 0.0864,70.0195 0.0874,70.0195 h 9.30442 9.30422 v -80.47342 -80.4724 h -12.56095 -12.56095 l -5.09128,6.11664"
       stroke="none"
       fill="#ea8b6b"
       fill-rule="evenodd"
       style="stroke-width:0.957237" />
  </g>
</svg>
