<?xml version="1.0" encoding="UTF-8" standalone="no"?>
<svg
   id="svg"
   version="1.1"
   width="1000"
   height="250"
   viewBox="0 0 1000 250"
   sodipodi:docname="logo_wide_transparent.svg"
   inkscape:version="1.1.1 (3bf5ae0d25, 2021-09-20)"
   xmlns:inkscape="http://www.inkscape.org/namespaces/inkscape"
   xmlns:sodipodi="http://sodipodi.sourceforge.net/DTD/sodipodi-0.dtd"
   xmlns="http://www.w3.org/2000/svg"
   xmlns:svg="http://www.w3.org/2000/svg">
  <defs
     id="defs8" />
  <sodipodi:namedview
     id="namedview6"
     pagecolor="#ffffff"
     bordercolor="#111111"
     borderopacity="1"
     inkscape:pageshadow="0"
     inkscape:pageopacity="0"
     inkscape:pagecheckerboard="1"
     showgrid="false"
     fit-margin-top="0"
     fit-margin-left="0"
     fit-margin-right="0"
     fit-margin-bottom="0"
     width="400px"
     inkscape:zoom="0.81722925"
     inkscape:cx="368.92953"
     inkscape:cy="182.9352"
     inkscape:window-width="1920"
     inkscape:window-height="1017"
     inkscape:window-x="1042"
     inkscape:window-y="372"
     inkscape:window-maximized="1"
     inkscape:current-layer="svgg" />
  <g
     id="svgg"
     transform="translate(482.96396,-16.927422)">
    <path
       id="path0"
       d="m 313.59335,62.109722 c -14.1516,1.503646 -23.56314,13.245249 -23.59183,29.431493 l -0.006,3.505107 h 9.0127 9.01253 l 0.18905,-4.108289 c 0.24988,-5.419115 1.27649,-7.499427 4.69925,-9.518909 l 1.53862,-0.907213 h 56.25863 c 63.37917,0 57.38423,-0.261183 60.11342,2.61794 2.51336,2.652066 2.4317,1.847609 2.45353,24.423769 0.0231,22.72614 0.0604,22.33574 -2.45353,24.84908 -2.89536,2.89532 2.784,2.63976 -59.08648,2.66168 -62.52893,0.0234 -61.16477,-0.0373 -66.79395,2.93331 -0.97746,0.5148 -2.09174,1.10374 -2.47641,1.30799 -2.87146,1.52358 -7.16041,6.16387 -9.19507,9.94728 -3.21235,5.97203 -3.27044,6.72809 -3.27144,42.6636 l -8.5e-4,30.01086 h 80.71078 80.71193 v -9.06292 -9.06293 l -68.14272,-0.004 -68.14282,-0.003 -1.71274,-0.79791 c -0.94218,-0.43891 -2.23144,-1.38791 -2.86491,-2.10887 -2.35571,-2.68426 -2.26271,-1.76293 -2.26271,-22.39468 0,-20.93187 -0.12817,-19.83756 2.62087,-22.46685 2.83447,-2.71193 -2.64839,-2.48114 59.45121,-2.502 52.67852,-0.0178 55.40653,-0.049 58.9868,-0.66876 9.6196,-1.66521 17.4381,-8.45211 20.82729,-18.07936 l 1.04395,-2.96562 0.1141,-23.08432 c 0.12338,-25.210123 0.13193,-25.075264 -1.8837,-30.096413 -3.52024,-8.767473 -12.1254,-15.363498 -21.44284,-16.435101 -2.56679,-0.295319 -111.67562,-0.377048 -114.41712,-0.08564 m -171.81643,4.863487 c -2.17813,2.616868 -4.15486,4.964059 -4.39424,5.215765 -0.23841,0.250852 -3.12611,3.6809 -6.41654,7.621018 -11.50136,13.770601 -15.45483,18.491638 -16.19481,19.34074 -0.41036,0.470337 -2.27785,2.701544 -4.1501,4.958474 -1.87318,2.25698 -4.0627,4.85209 -4.86726,5.76586 -0.80457,0.91377 -1.46285,1.79822 -1.46285,1.96622 0,0.1729 5.0449,0.30498 11.63054,0.30498 h 11.63063 l 0.6526,-0.76942 c 1.13701,-1.33934 8.22989,-9.75162 14.23799,-16.885279 3.18692,-3.785313 6.64169,-7.913638 7.67611,-9.174063 l 1.88082,-2.292166 0.0864,69.450578 0.0865,69.4515 h 9.23302 9.23305 V 142.07036 62.214731 h -12.45101 -12.45125 l -3.95918,4.758041 m 85.74732,1.311709 c -2.77945,3.338871 -6.80514,8.148246 -8.94709,10.687245 -2.14119,2.540072 -4.19293,4.973616 -4.55864,5.409658 -0.36574,0.436033 -2.23419,2.660591 -4.15301,4.943231 -5.86469,6.97984 -12.64771,15.078625 -14.08988,16.822665 -0.75217,0.91001 -1.52342,1.82371 -1.71353,2.03094 -1.30406,1.42196 -2.90279,3.45278 -2.90279,3.6874 0,0.154 5.22345,0.28023 11.60771,0.28023 h 11.6078 l 1.52354,-1.79526 c 4.59267,-5.41345 13.88282,-16.415128 15.23333,-18.040454 0.86075,-1.034401 1.65019,-1.95764 1.75571,-2.051803 0.10528,-0.09447 1.49323,-1.774316 3.08512,-3.73395 l 2.89525,-3.563071 0.0857,69.482838 0.0867,69.48285 h 9.2331 9.23291 V 142.07036 62.214731 H 245.04147 232.5768 l -5.05226,6.069759"
       stroke="none"
       fill="#ea8b6b"
       fill-rule="evenodd"
       style="stroke-width:0.9499"
       sodipodi:nodetypes="ccccccccscccccccscccccccscscsssccccccccccsssccccccccccccccccscccssccccccccccccccc" />
    <path
       id="path1000"
       d="m -401.25245,72.599956 c -5.04443,0.934819 -7.57307,2.503072 -12.40423,7.695644 -0.40355,0.43291 -1.39841,2.191458 -2.21062,3.907835 l -1.47885,3.119889 v 45.288786 45.29003 l 1.07402,2.5287 c 2.14805,5.06486 6.24364,9.14132 11.57031,11.51661 l 2.52988,1.12776 42.76036,0.1314 c 28.0714,0.0871 43.82536,-0.0339 45.85848,-0.34738 8.91912,-1.3818 15.15638,-7.73903 16.70665,-17.02585 0.97462,-5.83621 0.96052,-81.257619 -0.0177,-86.805219 -1.57095,-8.928016 -7.97405,-15.268674 -16.79996,-16.637697 -4.72905,-0.733044 -83.51829,-0.545305 -87.58961,0.209432 m 87.59718,13.952048 c 1.00006,0.523619 1.99484,1.604017 2.64614,2.874691 l 1.04337,2.034381 -0.12461,41.840734 -0.12474,41.84205 -1.07144,1.50044 c -2.16608,3.03695 0.55427,2.86707 -45.82789,2.86707 -46.38085,0 -43.66196,0.16988 -45.82787,-2.86707 l -1.07153,-1.50044 -0.1405,-40.23166 c -0.15922,-45.367966 -0.20137,-44.424212 2.04628,-46.911944 2.11737,-2.342146 -1.74193,-2.153155 45.23148,-2.223398 39.45644,-0.06005 41.7018,-0.01917 43.22003,0.775188 m 35.39668,77.315174 v 68.06026 h 6.89762 6.89622 v -19.29003 -19.28895 l 35.05945,-0.15318 35.05961,-0.15207 2.51838,-1.05606 c 5.08159,-2.13158 9.06215,-5.95758 11.40928,-10.96628 l 1.24529,-2.65877 v -34.02517 -34.02374 l -1.52223,-2.93854 c -1.94373,-3.75331 -6.03933,-7.848879 -9.79266,-9.793871 l -2.9385,-1.52099 -42.41555,-0.126474 -42.41691,-0.127683 V 163.86714 M -150.8985,96.138945 c -2.61031,0.418866 -10.55734,4.951205 -10.58191,6.035435 -0.005,0.17751 -0.60531,0.99996 -1.33587,1.82749 -0.73039,0.82884 -1.91686,2.89768 -2.63593,4.59875 l -1.30865,3.09178 v 32.87441 32.87569 l 1.67544,3.51572 c 3.13267,6.56672 8.69276,10.86023 15.39657,11.88459 2.07128,0.31658 16.7755,0.43918 42.70127,0.35749 l 39.54222,-0.12488 v -6.66643 -6.66763 l -40.46168,-0.22984 c -29.57199,-0.16721 -40.70914,-0.37418 -41.38243,-0.76496 -0.50562,-0.29372 -1.5401,-1.18634 -2.29853,-1.98327 l -1.37927,-1.44812 v -11.81039 -11.8104 l 42.7603,-0.22983 42.76174,-0.2299 v -19.54201 -19.54043 l -1.37688,-3.43532 c -2.16079,-5.38925 -7.14,-10.15272 -12.56378,-12.018526 -2.36517,-0.813498 -64.79763,-1.31666 -69.5126,-0.55935 m 101.15488,48.429106 v 48.76114 l 6.78236,-0.1262 6.78112,-0.12821 0.22988,-39.54211 c 0.12942,-22.10602 0.41258,-39.84588 0.64372,-40.23155 0.84166,-1.40606 2.376604,-2.86831 3.440559,-3.27952 2.113447,-0.81478 62.463103,-0.50062 64.225278,0.33586 3.40345,1.61422 3.162172,-1.40988 3.418806,42.9454 l 0.229724,39.77192 6.795574,0.12821 6.796494,0.12754 -0.129098,-41.27883 -0.129277,-41.27867 -1.121298,-2.29875 C 45.645505,103.19111 42.081145,99.552725 37.265275,97.296144 L 34.628217,96.059939 -7.558872,95.932265 -49.74422,95.805918 v 48.762272 m -145.84023,-34.02514 c 3.1926,2.07524 3.06232,0.7458 3.21311,32.87443 0.14446,31.03792 0.0949,31.82583 -2.13775,33.95608 -2.23998,2.13643 -2.26311,2.13775 -33.88222,2.13775 -33.2755,0 -32.69295,0.049 -34.81422,-2.92573 l -1.02946,-1.44177 v -30.57698 c 0,-33.81051 -0.17367,-31.78763 2.90678,-33.87692 2.29094,-1.55674 63.36715,-1.69211 65.74376,-0.14686 m 111.29716,0.0804 c 2.696,1.90921 2.8212,2.58351 2.8212,15.33637 v 11.71594 l -35.74941,-0.1182 -35.7493,-0.11767 v -11.72488 c 0,-16.28644 -0.44017,-15.74496 13.10416,-16.09232 18.99542,-0.48784 54.37151,0.14942 55.57335,0.99994"
       stroke="none"
       fill="#ea8b6b"
       fill-rule="evenodd"
       style="stroke-width:1.27708"
       sodipodi:nodetypes="cccccccccccccccccccccsccccccccccccccccccccccccccccccccccccccccccccccccccccccccccccccccccccccccccsccscccscccscc" />
  </g>
</svg>
